<svg width="716" height="526" viewBox="0 0 716 526" fill="none" xmlns="http://www.w3.org/2000/svg">
<g opacity="0.5" clip-path="url(#clip0_6_19)">
<path d="M-0.818848 -1.51013L356.442 -1.50987L713.704 -1.5096C713.704 175.028 713.704 351.566 713.704 528.104C475.53 528.104 237.355 528.104 -0.818848 528.104C-0.818848 351.566 -0.818848 175.028 -0.818848 -1.51013Z" fill="#F1F6FB"/>
<path d="M629.314 495.967L627.093 497.301C624.754 497.899 621.412 498.47 617.07 499.014C616.151 499.319 607.384 500.076 590.77 501.284C576.077 502.213 557.379 503.036 534.675 503.752C511.814 504.468 487.148 504.995 460.679 505.332C447.444 505.501 433.758 505.623 419.622 505.697C413.117 505.793 390.897 505.798 352.961 505.712C338.178 505.617 324.053 505.482 310.585 505.307C303.029 505.269 284.308 504.915 254.421 504.244C231.432 503.65 211.075 502.894 193.348 501.976C153.771 499.757 137.335 497.45 144.042 495.055C146.989 493.863 154.286 492.764 165.932 491.757C171.755 491.253 178.665 490.773 186.663 490.315C189.431 490.053 203.745 489.424 229.604 488.429C272.58 486.96 324.705 486.195 385.98 486.132C394.355 486.085 416.046 486.207 451.055 486.499C464.658 486.647 477.689 486.838 490.149 487.073C515.068 487.544 537.699 488.19 558.044 489.013C581.571 490.081 594.383 490.75 596.479 491.019C603.389 491.499 609.212 492.003 613.948 492.529C623.419 493.583 628.541 494.729 629.314 495.967Z" fill="black" fill-opacity="0.14902"/>
<path d="M236.428 75.3837L239.76 75.3839L243.093 75.3842C243.093 167.005 243.093 258.627 243.093 350.248C240.871 350.248 238.65 350.248 236.428 350.248C236.428 258.627 236.428 167.005 236.428 75.3837Z" fill="#778085"/>
<path d="M239.916 105.396C239.916 107.164 239.916 108.931 239.916 110.699C249.573 110.699 259.231 110.699 268.888 110.698C268.888 108.931 268.888 107.164 268.888 105.397L254.402 105.397L239.916 105.396Z" fill="#778085"/>
<path d="M236.428 75.3837C236.428 129.141 236.428 182.898 236.428 236.656C236.166 236.609 235.899 236.566 235.629 236.525L235.629 236.526C235.796 236.812 235.961 237.099 236.122 237.386C235.413 237.299 234.623 237.219 233.753 237.144C233.566 237.098 233.305 237.075 232.971 237.075C232.543 237.075 231.995 237.112 231.327 237.187C231.103 236.836 230.874 236.485 230.64 236.134L230.641 236.134C232.428 236.165 234.091 236.295 235.628 236.525C233.71 233.247 231.375 229.985 228.806 226.752C228.806 229.001 228.806 231.25 228.806 233.5C228.806 234.379 228.806 235.257 228.806 236.136L228.806 236.137C228.806 240.214 228.806 244.291 228.806 248.369C231.373 248.369 233.94 248.368 236.507 248.368C236.507 248.368 236.507 248.368 236.507 248.368L236.507 248.369C236.507 248.368 236.507 248.368 236.507 248.368C237.478 248.368 238.449 248.368 239.42 248.368V244.644C239.419 244.644 239.419 244.643 239.419 244.643L239.42 244.643L239.42 237.979C239.359 237.962 239.296 237.945 239.232 237.928L239.232 237.928C239.297 237.945 239.359 237.962 239.42 237.979V237.371C239.419 237.371 239.419 237.371 239.419 237.371L239.42 237.371L239.42 75.3839L236.428 75.3837Z" fill="#736E6E" fill-opacity="0.160784"/>
<path d="M267.071 105.438C267.56 106.95 267.731 108.764 267.757 110.679C267.316 110.746 266.875 110.813 266.434 110.879L266.433 110.88C266.861 110.815 267.289 110.75 267.718 110.685L267.758 110.679C267.778 112.238 267.702 113.865 267.622 115.449C267.614 115.608 267.606 115.766 267.598 115.924C267.579 116.305 267.334 116.611 267.021 116.658C267.001 116.662 266.98 116.664 266.959 116.664C266.617 116.678 266.322 116.38 266.278 115.976C266.273 115.927 266.272 115.878 266.274 115.829C266.277 115.77 266.28 115.711 266.283 115.652C266.367 113.981 266.442 112.368 266.431 110.88L266.432 110.88C266.417 108.842 266.241 107.039 265.706 105.645L267.07 105.438L267.071 105.438Z" fill="#84E4FE"/>
<path d="M255.623 116.183L266.056 116.184L276.489 116.184C276.489 130.687 276.489 145.191 276.489 159.694C269.534 159.695 262.578 159.695 255.623 159.695C255.623 145.191 255.623 130.687 255.623 116.183Z" fill="#85E4FE" fill-opacity="0.996078"/>
<path d="M267.028 150.987C268.806 171.696 270.589 192.469 271.211 205.45C271.835 218.499 271.295 223.862 269.355 230.996C267.457 237.971 264.223 246.667 261.032 255.251C260.731 256.062 259.932 256.43 259.249 256.071C258.566 255.712 258.257 254.764 258.559 253.952C261.77 245.314 264.937 236.789 266.782 230.008C268.583 223.386 269.125 218.458 268.511 205.633C267.894 192.742 266.119 172.058 264.338 151.313C264.262 150.43 264.803 149.641 265.546 149.551C266.289 149.461 266.952 150.104 267.028 150.987Z" fill="#85E4FE"/>
<path d="M257.443 120.99L266.205 120.991L274.967 120.991C274.967 133.334 274.967 145.678 274.967 158.021C269.126 158.021 263.285 158.021 257.443 158.022C257.443 145.678 257.443 133.334 257.443 120.99Z" fill="#FF0000"/>
<path d="M266.862 155.897V155.897L266.86 155.836L269.957 197.988L269.957 197.984C270.651 206.781 271.358 215.689 269.794 225.219C268.232 234.73 264.411 244.831 260.631 254.833C260.497 255.187 260.147 255.345 259.849 255.186C259.551 255.027 259.418 254.611 259.552 254.257C263.347 244.214 267.102 234.27 268.633 224.949C270.16 215.647 269.476 206.936 268.779 198.115L268.779 198.11L265.682 155.959L265.68 155.897V155.897C265.68 155.509 265.944 155.194 266.271 155.194C266.598 155.194 266.862 155.509 266.862 155.897Z" fill="#FF0000"/>
<path d="M439.563 217.043L442.855 217.044L446.146 217.044C446.146 250.817 446.146 284.591 446.146 318.365C443.952 318.365 441.758 318.365 439.563 318.365C439.563 284.591 439.563 250.817 439.563 217.043Z" fill="#778085"/>
<path d="M216.08 212.194C225.098 222.06 234.566 232.369 238.729 242.776C242.978 253.402 241.66 263.936 240.48 273.702C240.33 274.941 239.364 275.801 238.322 275.623C237.28 275.445 236.557 274.297 236.706 273.058C237.908 263.113 238.971 253.935 235.286 244.721C231.514 235.289 222.731 225.629 213.498 215.527C212.724 214.68 212.674 213.247 213.387 212.326C214.1 211.406 215.306 211.346 216.08 212.194Z" fill="white" fill-opacity="0.368627"/>
<path d="M573.118 357.243L580.904 329.082L254.805 329.334L135.557 257.386L120.911 292.494L226.65 353.555L573.118 357.243Z" fill="#A4AEB5" fill-opacity="0.996078"/>
<path d="M320.066 333.197L327.461 321.31L334.857 309.424L155.719 234.561C149.378 243.315 143.038 252.068 136.697 260.822C170.389 285.955 204.081 311.089 237.773 336.222L320.066 333.197Z" fill="#7D8B96" fill-opacity="0.996078"/>
<path d="M190.869 189.341L190.869 189.341L190.87 189.342L190.869 189.341Z" fill="#7D8B96"/>
<path d="M289.094 274.735L289.094 274.736L289.095 274.735L289.093 274.736L289.094 274.735Z" fill="#7D8B96" fill-opacity="0.996078"/>
<path d="M198.779 258.406L198.665 258.386C190.445 255.984 185.654 254.712 184.293 254.568C182.781 254.283 181.406 254.121 180.167 254.083C175.687 254.163 172.682 254.081 171.154 253.838C167.956 253.372 165.443 252.831 163.613 252.216C159.638 250.88 156.889 249.676 155.368 248.604C154.342 247.973 153.387 247.278 152.503 246.518L151.254 245.327C150.471 244.496 149.786 243.603 149.2 242.649C148.033 240.727 147.224 238.643 146.771 236.398C146.263 234.732 146.173 231.861 146.503 227.786C146.851 225.038 147.615 222.191 148.797 219.242C150.127 215.912 152.275 211.744 155.24 206.739C155.962 204.841 156.428 203.417 156.638 202.464C157.582 200.178 156.694 197.67 153.976 194.939C157.279 194.137 159.681 193.939 161.183 194.348C163.644 194.666 167.319 197.122 172.208 201.714L189.645 226.34L198.779 258.406Z" fill="black" fill-opacity="0.996078"/>
<path d="M203.063 262.663L203.064 262.662L194.751 257.51L191.367 256.326C192.111 253.377 192.215 250.856 191.576 248.808C190.977 246.889 189.748 245.109 187.907 243.563C186.338 242.246 185.098 241.556 184.29 241.267C183.766 241.08 183.257 240.849 182.728 240.72C179.346 239.893 177.577 239.42 177.433 239.238C176.587 238.958 175.573 238.385 174.725 237.155C172.778 234.331 172.642 232.031 173.831 230.443C174.144 230.025 174.81 229.611 175.924 229.162C176.302 229.01 178.129 228.72 181.447 228.321C182.256 228.224 182.628 227.92 182.451 227.64C182.114 227.106 181.608 226.753 181.062 226.429C177.096 224.079 174.421 222.427 173.054 221.448C170.545 219.651 169.196 218.417 168.791 218.045C166.453 215.899 164.601 213.006 164.167 208.957C163.529 203.005 164.892 199.062 167.478 197.22C173.242 197.092 176.935 197.396 178.615 197.883C180.478 198.424 182.091 199.66 183.407 201.843C190.159 199.696 194.112 199.077 195.405 199.434C197.002 199.876 197.341 201.681 196.334 205.414C198.772 205.706 200.231 206.139 200.8 206.558C201.434 207.024 201.771 207.913 201.731 209.386C202.147 208.476 202.834 208.314 203.757 208.968C204.575 209.547 205.818 210.861 207.521 212.844C209.972 213.55 211.711 214.286 212.633 215.208C213.525 216.1 213.91 216.953 213.899 217.619C214.192 218.733 213.837 221.176 212.834 224.949L209.207 230.562L221.646 248.799L203.063 262.663Z" fill="#FEBA9B"/>
<path d="M220.875 209.397L220.876 209.396L220.876 209.398L220.876 209.396L220.875 209.397Z" fill="black" fill-opacity="0.996078"/>
<path d="M207.849 235.306L206.728 237.582C200.6 248.831 197.705 259.179 198.044 268.625C198.229 272.071 199.255 275.615 201.122 279.257C202.989 282.899 206.126 286.633 210.532 290.459C220.496 298.58 236.217 306.859 257.694 315.297C270.683 320.542 285.012 325.668 300.682 330.677C310.097 333.721 319.628 336.094 329.275 337.794C337.438 313.649 341.101 298.76 340.265 293.126C340.319 289.988 340.004 287.101 339.319 284.465L337.953 280.741C336.9 278.461 335.229 276.388 332.939 274.521C330.137 272.069 325.209 269.822 318.156 267.778C315.769 267.121 313.291 266.523 310.723 265.985C297.534 263.514 289.679 261.977 287.157 261.376C281.508 260.029 277.381 258.802 274.775 257.692C272.374 256.876 268.598 255.073 263.45 252.283C261.614 251.342 255.541 247.485 245.232 240.711C243.978 239.94 242.376 239.163 240.428 238.38C239.59 237.867 237.365 237.455 233.753 237.144C232.552 236.851 228.336 237.496 221.104 239.079C220.396 239.276 219.214 239.244 217.557 238.98C216.395 238.68 215.274 238.021 214.193 237.002C213.056 235.96 211.575 233.868 209.75 230.726C209.501 230.424 209.274 230.285 209.07 230.309C208.477 230.477 208.07 232.142 207.849 235.306Z" fill="#FEBA9B" fill-opacity="0.996078"/>
<path d="M277.643 400.595L277.643 400.596L277.644 400.596L277.643 400.595Z" fill="black" fill-opacity="0.996078"/>
<path d="M230.423 277.505L234.416 279.598C242.413 283.812 250.357 287.901 258.247 291.864C264.793 295.097 268.705 297 269.983 297.575C272.137 298.604 275.143 299.982 279.003 301.71C284.707 304.248 291.069 306.89 298.089 309.638C303.008 311.585 311.115 314.617 322.411 318.734L230.423 277.505Z" fill="#FF5100" fill-opacity="0.0941176"/>
<path d="M375.797 316.971V316.971L375.797 316.972C396.794 324.495 417.79 332.019 438.787 339.542L375.797 316.971Z" fill="#FF5100" fill-opacity="0.996078"/>
<path d="M452.568 497.135V497.136L452.569 497.137L452.568 497.135Z" fill="black" fill-opacity="0.996078"/>
<path d="M331.073 345.869L331.072 345.869L331.072 345.87L331.073 345.869Z" fill="black" fill-opacity="0.996078"/>
<path d="M323.29 318.664L323.669 318.157C325.737 315.395 327.557 313.891 329.128 313.645C332.094 313.037 334.083 313.473 335.097 314.953C335.577 315.728 335.583 316.926 335.116 318.55C334.767 319.828 333.917 321.854 332.566 324.626C334.699 325.256 336.047 325.947 336.612 326.7C337.47 327.72 337.888 328.987 337.866 330.502C337.905 333.418 337.036 336.198 335.26 338.841C333.348 341.335 330.487 341.933 326.677 340.633C324.795 340.042 322.719 339.186 320.446 338.065L299.639 327.658L316.631 325.644L323.29 318.664Z" fill="#FEBA9B" fill-opacity="0.996078"/>
<path d="M131.701 298.075L123.182 325.857L237.559 386.359L568.055 383.111L578.385 347.077L225.232 347.882L131.701 298.075Z" fill="#7D8B96" fill-opacity="0.996078"/>
<path d="M193.011 299.595C193.456 299.684 193.983 299.831 194.593 300.036C195.003 300.158 195.894 300.507 197.265 301.084L193.011 299.595Z" fill="#A4AEB5" fill-opacity="0.996078"/>
<path d="M217.54 237.286L214.121 240.645C206.241 248.473 201.239 254.006 199.116 257.243C195.629 262.634 193.904 265.834 193.941 266.843C191.746 273.125 193.5 279.036 199.201 284.577C205.689 291.057 218.815 298.939 238.581 308.224C249.945 317.197 257.955 323.201 262.609 326.237C270.335 331.18 274.894 333.862 276.288 334.284C282.193 337.211 287.72 338.721 292.869 338.816C297.932 338.815 302.343 337.136 306.102 333.776L309.683 330.033C311.958 327.21 313.965 323.946 315.705 320.243C319.227 312.621 321.426 304.528 322.301 295.963C323.668 282.688 321.21 272.97 314.927 266.81C310.669 263.061 305.506 260.526 299.438 259.204L294.935 258.23L272.978 254.739C270.409 254.139 268.056 253.419 265.918 252.579C263.78 251.738 261.813 250.825 260.019 249.837C258.448 249.152 253.351 245.782 244.729 239.729L241.785 238.233C241.112 237.948 240.434 237.695 239.75 237.475C234.444 235.742 227.041 235.679 217.54 237.286Z" fill="#A6F8E5"/>
<path d="M276.757 352.421L281.388 256.328L382.194 272.473C401 278.9 419.572 284.632 437.911 289.667C450.107 292.938 462.027 295.385 473.669 297.006C486.558 298.517 496.538 299.013 503.609 298.495C505.98 298.543 512.381 298.024 522.809 296.94C547.233 293.441 559.273 291.881 558.927 292.259C564.494 291.87 568.773 292.295 571.765 293.535C577.179 296.224 580.022 300.691 580.296 306.937C579.285 329.977 578.951 343.925 579.295 348.781L276.757 352.421Z" fill="#C5E7FF" fill-opacity="0.996078"/>
<path d="M330.355 351.49V351.49L298.976 312.133L151.203 315.07L131.922 304.723L305.723 301.801L342.213 352.578L330.355 351.49Z" fill="#7D8B96" fill-opacity="0.996078"/>
<path d="M172.286 204.452L172.098 207.363C170.895 226.564 169.93 238.563 169.204 243.361C169.139 244.562 169.12 245.283 169.146 245.524C169.363 248.187 169.429 249.814 169.345 250.406C169.335 252.125 168.493 253.313 166.819 253.972C164.33 254.669 160.579 253.953 155.566 251.824C151.94 250.228 148.746 247.88 145.981 244.78C145.052 243.671 144.235 242.477 143.532 241.2L142.555 239.234C141.958 237.886 141.461 236.482 141.066 235.021C139.912 230.565 139.518 225.936 139.885 221.134C140.345 214.656 141.866 208.883 144.447 203.815C145.089 202.592 145.794 201.456 146.562 200.408L147.76 198.915C149.563 196.949 151.323 195.581 153.039 194.813C157.976 192.472 162.973 192.302 168.03 194.303C169.204 194.734 170.293 195.892 171.296 197.777C171.927 199.166 172.257 201.391 172.286 204.452Z" fill="#A6F8E5"/>
<path d="M187.436 200.731V200.732C191.276 198.013 194.194 196.554 196.189 196.353C198.79 195.877 201.551 196.352 204.471 197.777C206.349 198.679 208.122 199.861 209.79 201.322C210.611 202.047 211.368 202.822 212.06 203.647L213.032 204.915C214.851 207.545 215.752 210.39 215.736 213.45C215.822 213.939 215.699 215.491 215.366 218.105C215.147 219.678 214.527 222.356 213.505 226.138L187.436 200.731Z" fill="white" fill-opacity="0.545098"/>
<path d="M215.4 218.205L212.175 213.929L214.468 208.792L215.882 211.106C216.04 211.714 216.14 212.216 216.183 212.611C216.221 212.923 216.234 213.266 216.225 213.638C216.231 213.72 216.206 214.023 216.148 214.547C216.083 215.171 215.833 216.39 215.4 218.205Z" fill="white" fill-opacity="0.996078"/>
<path d="M267.956 370.919L515.484 370.919C519.609 370.919 522.954 374.895 522.954 379.799L522.954 492.305C522.954 497.209 519.609 501.185 515.484 501.185L267.956 501.185C265.974 501.185 264.074 500.25 262.673 498.584C261.272 496.919 260.485 494.661 260.485 492.306V379.799C260.485 377.443 261.272 375.185 262.673 373.52C264.074 371.855 265.974 370.919 267.956 370.919ZM267.956 388.678L275.426 379.799V492.306L267.956 483.426L515.484 483.426L508.013 492.305V379.799L515.484 388.679L267.956 388.678Z" fill="#7C8A96"/>
<path d="M462.778 126.012L462.778 214.971C462.778 217.986 460.722 220.43 458.186 220.43L409.774 220.431L394.551 220.43L346.143 220.431C343.606 220.43 341.55 217.987 341.55 214.971L341.55 126.012C341.55 122.997 343.606 120.553 346.143 120.553L458.186 120.553C460.722 120.553 462.778 122.997 462.778 126.012ZM456.637 213.13V138.533V127.853L347.691 127.853V138.533L347.691 213.13L456.637 213.131V213.13Z" fill="#778085"/>
<path d="M347.691 127.853L456.637 127.853V138.533L347.691 138.533V127.853ZM347.691 127.853L456.637 127.853V138.533L347.691 138.533V127.853ZM347.691 127.853L456.637 127.853V138.533L347.691 138.533V127.853ZM347.691 127.853L456.637 127.853V138.533L347.691 138.533V127.853Z" fill="#4D4D4D"/>
<path d="M347.691 138.533L456.637 138.533V213.13L347.691 213.13L347.691 138.533ZM347.691 138.533L456.637 138.533V213.13L347.691 213.13L347.691 138.533ZM347.691 138.533L456.637 138.533V213.13L347.691 213.13L347.691 138.533ZM347.691 138.533L456.637 138.533V213.13L347.691 213.13L347.691 138.533Z" fill="#F2F2F2"/>
<path d="M414.083 167.858L407.539 167.858L403.246 181.427L392.555 147.634L386.156 167.858L382.127 167.858L382.127 171.472L388.262 171.472L392.555 157.902L403.246 191.696L409.644 171.472L414.083 171.472C413.823 170.94 413.674 170.323 413.674 169.665C413.674 169.007 413.823 168.39 414.083 167.858Z" fill="#FF0030"/>
<path d="M416.715 166.05L416.715 173.279C418.392 173.279 419.755 171.658 419.756 169.665C419.756 167.671 418.392 166.05 416.715 166.05Z" fill="#FF0030"/>
<path d="M414.083 167.858C413.823 168.39 413.674 169.007 413.674 169.665C413.674 170.323 413.823 170.94 414.083 171.472C414.609 172.551 415.591 173.279 416.715 173.279L416.714 166.05C415.591 166.05 414.609 166.778 414.083 167.858Z" fill="#FF0030"/>
<path d="M462.778 126.012L462.778 214.971C462.778 217.987 460.722 220.43 458.186 220.43L393.589 220.431L437.314 120.553L458.186 120.553C460.722 120.553 462.778 122.997 462.778 126.012Z" fill="#F2F2F2" fill-opacity="0.227451"/>
<path d="M373.507 120.552L367.483 134.311L364.324 141.528L357.392 157.36L354.083 164.92L347.691 179.52L341.549 193.549L341.549 126.011C341.549 122.996 343.605 120.552 346.142 120.552L373.507 120.552V120.552Z" fill="#F2F2F2" fill-opacity="0.227451"/>
<path d="M264.515 105.397C264.19 106.97 264.214 108.795 264.393 110.698C264.837 110.698 265.282 110.698 265.727 110.698L265.728 110.699C265.296 110.699 264.864 110.698 264.432 110.698L264.392 110.699C264.538 112.249 264.787 113.851 265.035 115.41C265.059 115.566 265.084 115.722 265.109 115.877C265.169 116.253 265.445 116.519 265.76 116.519C265.781 116.519 265.801 116.518 265.822 116.516C266.163 116.478 266.424 116.138 266.424 115.731C266.424 115.681 266.42 115.632 266.412 115.585C266.403 115.526 266.394 115.468 266.385 115.41C266.123 113.765 265.877 112.176 265.729 110.698L265.728 110.699C265.526 108.675 265.508 106.86 265.89 105.397L264.516 105.397H264.515Z" fill="#84E4FE"/>
<path d="M268.41 116.184C268.414 116.235 268.417 116.287 268.421 116.339C268.45 116.751 268.74 117.063 269.081 117.063C269.1 117.063 269.118 117.062 269.136 117.06C269.502 117.024 269.773 116.643 269.743 116.209C269.742 116.201 269.742 116.192 269.741 116.184L268.411 116.184H268.41Z" fill="#84E4FE"/>
<path d="M255.623 116.183C255.623 130.687 255.623 145.191 255.623 159.695C257.992 159.695 260.362 159.695 262.731 159.695C262.732 145.191 262.732 130.687 262.732 116.184L255.623 116.183Z" fill="#FFF7F7" fill-opacity="0.164706"/>
<path d="M210.389 371.987L237.559 386.359L260.485 386.133V492.306C260.485 494.661 261.272 496.919 262.673 498.584C264.074 500.25 265.974 501.185 267.956 501.185L515.484 501.185C519.609 501.185 522.954 497.209 522.954 492.305L522.954 383.554L568.055 383.111L571.244 371.987L519.042 371.987L519.038 371.988C519.038 371.987 519.038 371.987 519.038 371.987L378.052 371.987L264.405 371.987L264.404 371.987L210.389 371.987Z" fill="#626A6F"/>
<path d="M508.014 483.426L275.426 483.427V483.426L508.014 483.426Z" fill="#736E6E" fill-opacity="0.996078"/>
</g>
<defs>
<clipPath id="clip0_6_19">
<rect width="716" height="526" fill="white"/>
</clipPath>
</defs>
</svg>
